<svg width="32" height="32" viewBox="0 0 32 32" fill="none" xmlns="http://www.w3.org/2000/svg">
  <defs>
    <filter id="glow">
      <feGaussianBlur stdDeviation="1.5" result="coloredBlur"/>
      <feMerge> 
        <feMergeNode in="coloredBlur"/>
        <feMergeNode in="SourceGraphic"/>
      </feMerge>
    </filter>
    <linearGradient id="matrixGradient" x1="0%" y1="0%" x2="100%" y2="100%">
      <stop offset="0%" style="stop-color:#00ff00;stop-opacity:0.9" />
      <stop offset="50%" style="stop-color:#00cc00;stop-opacity:0.8" />
      <stop offset="100%" style="stop-color:#008800;stop-opacity:0.7" />
    </linearGradient>
    <radialGradient id="innerGlow" cx="50%" cy="50%" r="50%">
      <stop offset="0%" style="stop-color:#00ff00;stop-opacity:0.3" />
      <stop offset="100%" style="stop-color:#00ff00;stop-opacity:0" />
    </radialGradient>
  </defs>
  
  <!-- Background with inner glow -->
  <circle cx="16" cy="16" r="15" fill="url(#innerGlow)"/>
  <circle cx="16" cy="16" r="14" fill="url(#matrixGradient)" filter="url(#glow)"/>
  
  <!-- Matrix grid pattern -->
  <g stroke="#00ff00" stroke-width="0.3" opacity="0.7">
    <!-- Horizontal lines -->
    <line x1="6" y1="8" x2="26" y2="8"/>
    <line x1="6" y1="12" x2="26" y2="12"/>
    <line x1="6" y1="16" x2="26" y2="16"/>
    <line x1="6" y1="20" x2="26" y2="20"/>
    <line x1="6" y1="24" x2="26" y2="24"/>
    
    <!-- Vertical lines -->
    <line x1="8" y1="6" x2="8" y2="26"/>
    <line x1="12" y1="6" x2="12" y2="26"/>
    <line x1="16" y1="6" x2="16" y2="26"/>
    <line x1="20" y1="6" x2="20" y2="26"/>
    <line x1="24" y1="6" x2="24" y2="26"/>
  </g>
  
  <!-- Central "P" for Pig Game with glow -->
  <path d="M11 9 L11 23 L17 23 Q19 23 19 21 L19 17 Q19 15 17 15 L13 15 L13 9 Z" 
        fill="#00ff00" filter="url(#glow)"/>
  
  <!-- Matrix characters scattered around -->
  <text x="7" y="19" font-family="monospace" font-size="2.5" fill="#00ff00" opacity="0.8">1</text>
  <text x="25" y="13" font-family="monospace" font-size="2.5" fill="#00ff00" opacity="0.7">0</text>
  <text x="5" y="27" font-family="monospace" font-size="2" fill="#00ff00" opacity="0.6">@</text>
  <text x="27" y="5" font-family="monospace" font-size="2" fill="#00ff00" opacity="0.6">#</text>
  <text x="9" y="11" font-family="monospace" font-size="2" fill="#00ff00" opacity="0.5">$</text>
  <text x="23" y="21" font-family="monospace" font-size="2" fill="#00ff00" opacity="0.5">%</text>
  
  <!-- Corner accents -->
  <circle cx="6" cy="6" r="1" fill="#00ff00" opacity="0.8"/>
  <circle cx="26" cy="6" r="1" fill="#00ff00" opacity="0.8"/>
  <circle cx="6" cy="26" r="1" fill="#00ff00" opacity="0.8"/>
  <circle cx="26" cy="26" r="1" fill="#00ff00" opacity="0.8"/>
  
  <!-- Scan line effect -->
  <rect x="6" y="14" width="20" height="1" fill="#00ff00" opacity="0.4">
    <animate attributeName="opacity" values="0.4;0.8;0.4" dur="2s" repeatCount="indefinite"/>
  </rect>
</svg> 